<svg width="24" height="24" viewBox="0 0 24 24" fill="none" xmlns="http://www.w3.org/2000/svg">
<path d="M12 24C18.6274 24 24 18.6274 24 12C24 5.37258 18.6274 0 12 0C5.37258 0 0 5.37258 0 12C0 18.6274 5.37258 24 12 24Z" fill="#F7F7F7"/>
<path fill-rule="evenodd" clip-rule="evenodd" d="M7.49414 15.0175L11.3645 18.0L7.49414 7.28711V15.0175Z" fill="#414141"/>
<path fill-rule="evenodd" clip-rule="evenodd" d="M16.5059 8.98252L12.6355 6L16.5059 16.7129V8.98252Z" fill="#414141"/>
<path fill-rule="evenodd" clip-rule="evenodd" d="M12.5648 7.18018L17.5826 9.81826H6.41742L11.4352 7.18018C11.7802 7 12.2198 7 12.5648 7.18018Z" fill="#414141"/>
<path fill-rule="evenodd" clip-rule="evenodd" d="M11.4352 16.8198L6.41742 14.1817H17.5826L12.5648 16.8198C12.2198 17 11.7802 17 11.4352 16.8198Z" fill="#414141"/>
</svg>